<svg width="83" height="100" viewBox="0 0 83 100" fill="none" xmlns="http://www.w3.org/2000/svg">
<g clip-path="url(#clip0_696_1148)">
<path d="M82.0359 42.2156C82.0359 74.0337 41.018 101.306 41.018 101.306C41.018 101.306 0 74.0337 0 42.2156C1.62104e-07 31.3658 4.32152 20.9604 12.0139 13.2885C19.7062 5.61652 30.1393 1.30647 41.018 1.30647C51.8966 1.30647 62.3297 5.61652 70.022 13.2885C77.7144 20.9604 82.0359 31.3658 82.0359 42.2156Z" fill="#5072BF" stroke="#192A51" stroke-width="2" stroke-linecap="round" stroke-linejoin="round"/>
<path d="M82.0359 40.9091C82.0359 72.7273 41.018 100 41.018 100C41.018 100 0 72.7273 0 40.9091C1.62104e-07 30.0593 4.32152 19.6539 12.0139 11.982C19.7062 4.31005 30.1393 0 41.018 0C51.8966 0 62.3297 4.31005 70.022 11.982C77.7144 19.6539 82.0359 30.0593 82.0359 40.9091Z" fill="white" stroke="#192A51" stroke-width="2" stroke-linecap="round" stroke-linejoin="round"/>
<g filter="url(#filter0_d_696_1148)">
<ellipse cx="40.6905" cy="41.8345" rx="26.8541" ry="26.7828" fill="#5072BF"/>
</g>
<g filter="url(#filter1_d_696_1148)">
<path fill-rule="evenodd" clip-rule="evenodd" d="M20.6167 19.9902V49.6734H27.4914V40.0995H33.5276C35.4559 40.0995 37.1187 39.6257 38.516 38.6781C39.9412 37.7026 41.045 36.4483 41.8275 34.9154C42.6379 33.3825 43.0432 31.7659 43.0432 30.0658C43.0432 28.8115 42.8056 27.5852 42.3305 26.3867C41.8555 25.1882 41.1848 24.1152 40.3185 23.1676C39.4521 22.1921 38.4181 21.4256 37.2165 20.8682C36.0428 20.2829 34.7433 19.9902 33.3181 19.9902H20.6167ZM33.1085 34.1211H27.4914V26.0105H32.8569C33.3879 26.0105 33.8909 26.1498 34.366 26.4285C34.869 26.7072 35.2743 27.1532 35.5817 27.7664C35.917 28.3517 36.0847 29.1042 36.0847 30.024C36.0847 30.9158 35.9449 31.6684 35.6655 32.2816C35.386 32.8947 35.0227 33.3546 34.5756 33.6612C34.1285 33.9678 33.6394 34.1211 33.1085 34.1211Z" fill="#192A51"/>
<path d="M44.0754 66.4329C45.808 67.1575 47.6525 67.5199 49.6087 67.5199C52.5561 67.5199 55.1691 66.4694 57.4474 64.3684V67.3108H63.1483V51.8003H51.6627V56.7754H57.4474V57.7065C56.4708 58.8498 55.4088 59.7379 54.2616 60.3708C52.9761 61.0676 51.6207 61.416 50.1955 61.416C49.0218 61.416 47.9459 61.193 46.9678 60.7471C46.0176 60.3011 45.1932 59.688 44.4946 58.9076C43.7959 58.0993 43.251 57.1517 42.8598 56.0647C42.4685 54.9777 42.2729 53.7931 42.2729 52.5111C42.2729 51.2568 42.4545 50.0862 42.8178 48.9992C43.1811 47.9123 43.6981 46.9646 44.3688 46.1563C45.0675 45.3202 45.8779 44.6792 46.8001 44.2332C47.7503 43.7594 48.7843 43.5225 49.9021 43.5225C51.3832 43.5225 52.7525 43.8988 54.0101 44.6513C55.2956 45.4038 56.2737 46.4351 56.9444 47.745L62.0585 43.8988C61.0524 41.9199 59.5014 40.3451 57.4055 39.1745C55.3096 38.0039 52.8923 37.4186 50.1536 37.4186C48.0577 37.4186 46.1015 37.8088 44.285 38.5892C42.4965 39.3418 40.9315 40.4009 39.5901 41.7666C38.2487 43.1323 37.2008 44.707 36.4462 46.4908C35.6917 48.2746 35.3144 50.1977 35.3144 52.2602C35.3144 54.5457 35.6777 56.6221 36.4043 58.4895C37.1588 60.329 38.1928 61.9316 39.5063 63.2973C40.8197 64.6352 42.3428 65.6804 44.0754 66.4329Z" fill="#192A51"/>
</g>
<path d="M6.66878 89.6425C6.39019 90.1194 6.55091 90.7318 7.02778 91.0104C7.50465 91.289 8.11707 91.1283 8.39567 90.6514L6.66878 89.6425ZM84.1533 9.58351L84.2648 10.5773L86.2524 10.3542L86.1408 9.36043L84.1533 9.58351ZM8.39567 90.6514C20.504 69.9261 38.8939 41.0575 54.7269 21.7584C58.6828 16.9364 62.4672 12.7266 65.9439 9.39604C69.4323 6.05422 72.5611 3.64653 75.2037 2.37381C77.8656 1.09174 79.7734 1.07364 81.1049 2.00408C82.5091 2.9853 83.6692 5.27056 84.1533 9.58351L86.1408 9.36043C85.6424 4.91998 84.3976 1.86501 82.2505 0.364685C80.0308 -1.18641 77.2412 -0.827372 74.3358 0.571903C71.4111 1.98053 68.1027 4.55837 64.5603 7.9518C61.0063 11.3565 57.1663 15.6316 53.1806 20.4899C37.2472 39.9115 18.7946 68.8872 6.66878 89.6425L8.39567 90.6514Z" fill="#192A51"/>
</g>
<defs>
<filter id="filter0_d_696_1148" x="3.8364" y="9.05171" width="73.7082" height="73.5656" filterUnits="userSpaceOnUse" color-interpolation-filters="sRGB">
<feFlood flood-opacity="0" result="BackgroundImageFix"/>
<feColorMatrix in="SourceAlpha" type="matrix" values="0 0 0 0 0 0 0 0 0 0 0 0 0 0 0 0 0 0 127 0" result="hardAlpha"/>
<feOffset dy="4"/>
<feGaussianBlur stdDeviation="5"/>
<feComposite in2="hardAlpha" operator="out"/>
<feColorMatrix type="matrix" values="0 0 0 0 0.627451 0 0 0 0 0.745098 0 0 0 0 0.972549 0 0 0 0.25 0"/>
<feBlend mode="color-dodge" in2="BackgroundImageFix" result="effect1_dropShadow_696_1148"/>
<feBlend mode="normal" in="SourceGraphic" in2="effect1_dropShadow_696_1148" result="shape"/>
</filter>
<filter id="filter1_d_696_1148" x="16.6167" y="19.9902" width="50.5316" height="55.5297" filterUnits="userSpaceOnUse" color-interpolation-filters="sRGB">
<feFlood flood-opacity="0" result="BackgroundImageFix"/>
<feColorMatrix in="SourceAlpha" type="matrix" values="0 0 0 0 0 0 0 0 0 0 0 0 0 0 0 0 0 0 127 0" result="hardAlpha"/>
<feOffset dy="4"/>
<feGaussianBlur stdDeviation="2"/>
<feComposite in2="hardAlpha" operator="out"/>
<feColorMatrix type="matrix" values="0 0 0 0 0.709804 0 0 0 0 0.941176 0 0 0 0 0.941176 0 0 0 0.12 0"/>
<feBlend mode="normal" in2="BackgroundImageFix" result="effect1_dropShadow_696_1148"/>
<feBlend mode="normal" in="SourceGraphic" in2="effect1_dropShadow_696_1148" result="shape"/>
</filter>
<clipPath id="clip0_696_1148">
<rect width="82.0359" height="100" fill="white"/>
</clipPath>
</defs>
</svg>
